<!DOCTYPE svg PUBLIC "-//W3C//DTD SVG 1.1//EN" "http://www.w3.org/Graphics/SVG/1.1/DTD/svg11.dtd">
<!-- Uploaded to: SVG Repo, www.svgrepo.com, Transformed by: SVG Repo Mixer Tools -->
<svg fill="#444746" height="67px" width="67px" version="1.1" id="Layer_1" xmlns="http://www.w3.org/2000/svg" xmlns:xlink="http://www.w3.org/1999/xlink" viewBox="0 0 512.001 512.001" xml:space="preserve" stroke="#444746">
<g id="SVGRepo_bgCarrier" stroke-width="0"/>
<g id="SVGRepo_tracerCarrier" stroke-linecap="round" stroke-linejoin="round"/>
<g id="SVGRepo_iconCarrier"> <g> <g> <path d="M256.001,0c-71.047,0-129.186,57.803-129.186,128.852v289.064c0,51.879,42.374,94.086,94.253,94.086 c51.879,0,94.253-42.207,94.253-94.086v-252.49c0-32.709-26.611-59.32-59.32-59.32s-59.32,26.611-59.32,59.32v218.587 c0,10.92,8.853,19.773,19.773,19.773c10.92,0,19.773-8.853,19.773-19.773V165.426c0-10.903,8.87-19.773,19.773-19.773 s19.773,8.87,19.773,19.773v252.49c0,30.073-24.634,54.539-54.706,54.539s-54.706-24.466-54.706-54.539V128.852 c0-49.242,40.397-89.305,89.64-89.305s89.64,40.062,89.64,89.305v270.553c0,10.92,8.853,19.773,19.773,19.773 c10.92,0,19.773-8.853,19.773-19.773V128.852C385.187,57.803,327.049,0,256.001,0z"/> </g> </g> </g>
</svg>